<mxfile host="Electron" modified="2024-02-26T01:32:47.638Z" agent="Mozilla/5.0 (Windows NT 10.0; Win64; x64) AppleWebKit/537.36 (KHTML, like Gecko) draw.io/23.1.5 Chrome/120.0.6099.109 Electron/28.1.0 Safari/537.36" etag="SQGKX4l4vhd_2GKPL6eS" version="23.1.5" type="device">
  <diagram name="第 1 页" id="dYeBCy7nVTJldMxVOHKt">
    <mxGraphModel dx="2048" dy="799" grid="1" gridSize="10" guides="1" tooltips="1" connect="1" arrows="1" fold="1" page="1" pageScale="1" pageWidth="827" pageHeight="1169" math="0" shadow="0">
      <root>
        <mxCell id="0" />
        <mxCell id="1" parent="0" />
        <mxCell id="FIvhjPSSkFFBlxrObluq-1" value="feature 部分&lt;div&gt;&lt;br/&gt;&lt;/div&gt;" style="rounded=0;whiteSpace=wrap;html=1;verticalAlign=top;" parent="1" vertex="1">
          <mxGeometry x="320" y="310" width="230" height="200" as="geometry" />
        </mxCell>
        <mxCell id="FIvhjPSSkFFBlxrObluq-7" style="edgeStyle=orthogonalEdgeStyle;rounded=0;orthogonalLoop=1;jettySize=auto;html=1;entryX=0.5;entryY=0;entryDx=0;entryDy=0;" parent="1" source="FIvhjPSSkFFBlxrObluq-2" target="FIvhjPSSkFFBlxrObluq-1" edge="1">
          <mxGeometry relative="1" as="geometry" />
        </mxCell>
        <mxCell id="FIvhjPSSkFFBlxrObluq-2" value="tranform&lt;br&gt;将本地数据resize与预训练模型一致&lt;br&gt;&lt;div&gt;&lt;br&gt;&lt;/div&gt;" style="rounded=0;whiteSpace=wrap;html=1;verticalAlign=top;" parent="1" vertex="1">
          <mxGeometry x="320" y="200" width="230" height="70" as="geometry" />
        </mxCell>
        <mxCell id="FIvhjPSSkFFBlxrObluq-3" value="conv..." style="rounded=0;whiteSpace=wrap;html=1;" parent="1" vertex="1">
          <mxGeometry x="375" y="340" width="120" height="60" as="geometry" />
        </mxCell>
        <mxCell id="FIvhjPSSkFFBlxrObluq-4" value="maxpool" style="rounded=0;whiteSpace=wrap;html=1;" parent="1" vertex="1">
          <mxGeometry x="375" y="420" width="120" height="60" as="geometry" />
        </mxCell>
        <mxCell id="FIvhjPSSkFFBlxrObluq-6" style="edgeStyle=orthogonalEdgeStyle;rounded=0;orthogonalLoop=1;jettySize=auto;html=1;" parent="1" source="FIvhjPSSkFFBlxrObluq-5" target="FIvhjPSSkFFBlxrObluq-2" edge="1">
          <mxGeometry relative="1" as="geometry" />
        </mxCell>
        <mxCell id="FIvhjPSSkFFBlxrObluq-10" style="edgeStyle=orthogonalEdgeStyle;rounded=0;orthogonalLoop=1;jettySize=auto;html=1;entryX=1;entryY=0.5;entryDx=0;entryDy=0;" parent="1" source="FIvhjPSSkFFBlxrObluq-5" target="FIvhjPSSkFFBlxrObluq-11" edge="1">
          <mxGeometry relative="1" as="geometry">
            <mxPoint x="670" y="160" as="sourcePoint" />
            <mxPoint x="785" y="565" as="targetPoint" />
          </mxGeometry>
        </mxCell>
        <mxCell id="FIvhjPSSkFFBlxrObluq-5" value="本地数据" style="shape=cylinder3;whiteSpace=wrap;html=1;boundedLbl=1;backgroundOutline=1;size=15;" parent="1" vertex="1">
          <mxGeometry x="405" y="80" width="60" height="80" as="geometry" />
        </mxCell>
        <mxCell id="FIvhjPSSkFFBlxrObluq-8" value="classifer部分&lt;div&gt;&lt;br&gt;&lt;/div&gt;" style="rounded=0;whiteSpace=wrap;html=1;verticalAlign=top;" parent="1" vertex="1">
          <mxGeometry x="320" y="530" width="230" height="70" as="geometry" />
        </mxCell>
        <mxCell id="FIvhjPSSkFFBlxrObluq-12" style="edgeStyle=orthogonalEdgeStyle;rounded=0;orthogonalLoop=1;jettySize=auto;html=1;exitX=0;exitY=0.5;exitDx=0;exitDy=0;" parent="1" source="FIvhjPSSkFFBlxrObluq-11" target="FIvhjPSSkFFBlxrObluq-8" edge="1">
          <mxGeometry relative="1" as="geometry" />
        </mxCell>
        <mxCell id="FIvhjPSSkFFBlxrObluq-11" value="调整最后一层linear的分类output使得其与分类模板一致" style="rounded=0;whiteSpace=wrap;html=1;" parent="1" vertex="1">
          <mxGeometry x="610" y="535" width="120" height="60" as="geometry" />
        </mxCell>
        <mxCell id="FIvhjPSSkFFBlxrObluq-15" style="edgeStyle=orthogonalEdgeStyle;rounded=0;orthogonalLoop=1;jettySize=auto;html=1;" parent="1" source="FIvhjPSSkFFBlxrObluq-14" target="FIvhjPSSkFFBlxrObluq-1" edge="1">
          <mxGeometry relative="1" as="geometry" />
        </mxCell>
        <mxCell id="FIvhjPSSkFFBlxrObluq-14" value="冻结feature，params不参与训练，防止开始时，由于classifer部分的权重为随机，破坏了之前训练好的优秀feature 中params" style="shape=step;perimeter=stepPerimeter;whiteSpace=wrap;html=1;fixedSize=1;" parent="1" vertex="1">
          <mxGeometry x="50" y="315" width="210" height="190" as="geometry" />
        </mxCell>
        <mxCell id="0OLPUZD3VUrtrHqeOKkV-2" value="&lt;h1&gt;预训练模型：&lt;/h1&gt;&lt;p&gt;实现预训练模型的部署.&lt;/p&gt;" style="text;html=1;spacing=5;spacingTop=-20;whiteSpace=wrap;overflow=hidden;rounded=0;" vertex="1" parent="1">
          <mxGeometry x="80" y="130" width="190" height="120" as="geometry" />
        </mxCell>
        <mxCell id="0OLPUZD3VUrtrHqeOKkV-4" style="edgeStyle=orthogonalEdgeStyle;rounded=0;orthogonalLoop=1;jettySize=auto;html=1;entryX=0;entryY=0.5;entryDx=0;entryDy=0;" edge="1" parent="1" source="0OLPUZD3VUrtrHqeOKkV-3" target="FIvhjPSSkFFBlxrObluq-8">
          <mxGeometry relative="1" as="geometry" />
        </mxCell>
        <mxCell id="0OLPUZD3VUrtrHqeOKkV-3" value="训练classifer部分" style="shape=step;perimeter=stepPerimeter;whiteSpace=wrap;html=1;fixedSize=1;" vertex="1" parent="1">
          <mxGeometry x="50" y="530" width="210" height="70" as="geometry" />
        </mxCell>
        <mxCell id="0OLPUZD3VUrtrHqeOKkV-5" value="feature 部分&lt;div&gt;&lt;br/&gt;&lt;/div&gt;" style="rounded=0;whiteSpace=wrap;html=1;verticalAlign=top;" vertex="1" parent="1">
          <mxGeometry x="320" y="860" width="230" height="200" as="geometry" />
        </mxCell>
        <mxCell id="0OLPUZD3VUrtrHqeOKkV-6" style="edgeStyle=orthogonalEdgeStyle;rounded=0;orthogonalLoop=1;jettySize=auto;html=1;entryX=0.5;entryY=0;entryDx=0;entryDy=0;" edge="1" parent="1" source="0OLPUZD3VUrtrHqeOKkV-7" target="0OLPUZD3VUrtrHqeOKkV-5">
          <mxGeometry relative="1" as="geometry" />
        </mxCell>
        <mxCell id="0OLPUZD3VUrtrHqeOKkV-7" value="tranform&lt;br&gt;将本地数据resize与预训练模型一致&lt;br&gt;&lt;div&gt;&lt;br&gt;&lt;/div&gt;" style="rounded=0;whiteSpace=wrap;html=1;verticalAlign=top;" vertex="1" parent="1">
          <mxGeometry x="320" y="750" width="230" height="70" as="geometry" />
        </mxCell>
        <mxCell id="0OLPUZD3VUrtrHqeOKkV-8" value="conv..." style="rounded=0;whiteSpace=wrap;html=1;" vertex="1" parent="1">
          <mxGeometry x="375" y="890" width="120" height="60" as="geometry" />
        </mxCell>
        <mxCell id="0OLPUZD3VUrtrHqeOKkV-9" value="maxpool" style="rounded=0;whiteSpace=wrap;html=1;" vertex="1" parent="1">
          <mxGeometry x="375" y="970" width="120" height="60" as="geometry" />
        </mxCell>
        <mxCell id="0OLPUZD3VUrtrHqeOKkV-10" style="edgeStyle=orthogonalEdgeStyle;rounded=0;orthogonalLoop=1;jettySize=auto;html=1;" edge="1" parent="1" source="0OLPUZD3VUrtrHqeOKkV-12" target="0OLPUZD3VUrtrHqeOKkV-7">
          <mxGeometry relative="1" as="geometry" />
        </mxCell>
        <mxCell id="0OLPUZD3VUrtrHqeOKkV-11" style="edgeStyle=orthogonalEdgeStyle;rounded=0;orthogonalLoop=1;jettySize=auto;html=1;entryX=1;entryY=0.5;entryDx=0;entryDy=0;" edge="1" parent="1" source="0OLPUZD3VUrtrHqeOKkV-12" target="0OLPUZD3VUrtrHqeOKkV-15">
          <mxGeometry relative="1" as="geometry">
            <mxPoint x="670" y="710" as="sourcePoint" />
            <mxPoint x="785" y="1115" as="targetPoint" />
          </mxGeometry>
        </mxCell>
        <mxCell id="0OLPUZD3VUrtrHqeOKkV-12" value="本地数据" style="shape=cylinder3;whiteSpace=wrap;html=1;boundedLbl=1;backgroundOutline=1;size=15;" vertex="1" parent="1">
          <mxGeometry x="405" y="630" width="60" height="80" as="geometry" />
        </mxCell>
        <mxCell id="0OLPUZD3VUrtrHqeOKkV-13" value="classifer部分&lt;div&gt;&lt;br&gt;&lt;/div&gt;" style="rounded=0;whiteSpace=wrap;html=1;verticalAlign=top;" vertex="1" parent="1">
          <mxGeometry x="320" y="1080" width="230" height="70" as="geometry" />
        </mxCell>
        <mxCell id="0OLPUZD3VUrtrHqeOKkV-14" style="edgeStyle=orthogonalEdgeStyle;rounded=0;orthogonalLoop=1;jettySize=auto;html=1;exitX=0;exitY=0.5;exitDx=0;exitDy=0;" edge="1" parent="1" source="0OLPUZD3VUrtrHqeOKkV-15" target="0OLPUZD3VUrtrHqeOKkV-13">
          <mxGeometry relative="1" as="geometry" />
        </mxCell>
        <mxCell id="0OLPUZD3VUrtrHqeOKkV-15" value="调整最后一层linear的分类output使得其与分类模板一致" style="rounded=0;whiteSpace=wrap;html=1;" vertex="1" parent="1">
          <mxGeometry x="610" y="1085" width="120" height="60" as="geometry" />
        </mxCell>
        <mxCell id="0OLPUZD3VUrtrHqeOKkV-16" style="edgeStyle=orthogonalEdgeStyle;rounded=0;orthogonalLoop=1;jettySize=auto;html=1;" edge="1" parent="1" source="0OLPUZD3VUrtrHqeOKkV-17" target="0OLPUZD3VUrtrHqeOKkV-5">
          <mxGeometry relative="1" as="geometry" />
        </mxCell>
        <mxCell id="0OLPUZD3VUrtrHqeOKkV-17" value="解冻feature部分，使得其参与训练，实现模型优化" style="shape=step;perimeter=stepPerimeter;whiteSpace=wrap;html=1;fixedSize=1;" vertex="1" parent="1">
          <mxGeometry x="50" y="865" width="210" height="190" as="geometry" />
        </mxCell>
        <mxCell id="0OLPUZD3VUrtrHqeOKkV-18" value="&lt;h1&gt;预训练模型微调：&lt;/h1&gt;&lt;p&gt;实现预训练模型的部署.&lt;/p&gt;" style="text;html=1;spacing=5;spacingTop=-20;whiteSpace=wrap;overflow=hidden;rounded=0;" vertex="1" parent="1">
          <mxGeometry x="80" y="680" width="190" height="120" as="geometry" />
        </mxCell>
        <mxCell id="0OLPUZD3VUrtrHqeOKkV-19" style="edgeStyle=orthogonalEdgeStyle;rounded=0;orthogonalLoop=1;jettySize=auto;html=1;entryX=0;entryY=0.5;entryDx=0;entryDy=0;" edge="1" parent="1" target="0OLPUZD3VUrtrHqeOKkV-13">
          <mxGeometry relative="1" as="geometry">
            <mxPoint x="260" y="1115" as="sourcePoint" />
          </mxGeometry>
        </mxCell>
        <mxCell id="0OLPUZD3VUrtrHqeOKkV-23" style="edgeStyle=orthogonalEdgeStyle;rounded=0;orthogonalLoop=1;jettySize=auto;html=1;exitX=0.5;exitY=1;exitDx=0;exitDy=0;entryX=0;entryY=0.5;entryDx=0;entryDy=0;" edge="1" parent="1" source="0OLPUZD3VUrtrHqeOKkV-21" target="0OLPUZD3VUrtrHqeOKkV-13">
          <mxGeometry relative="1" as="geometry" />
        </mxCell>
        <mxCell id="0OLPUZD3VUrtrHqeOKkV-24" value="投入使用" style="edgeLabel;html=1;align=center;verticalAlign=middle;resizable=0;points=[];" vertex="1" connectable="0" parent="0OLPUZD3VUrtrHqeOKkV-23">
          <mxGeometry x="-0.7566" y="3" relative="1" as="geometry">
            <mxPoint as="offset" />
          </mxGeometry>
        </mxCell>
        <mxCell id="0OLPUZD3VUrtrHqeOKkV-21" value="训练完成的classifer部分" style="rounded=1;whiteSpace=wrap;html=1;" vertex="1" parent="1">
          <mxGeometry x="-110" y="910" width="120" height="60" as="geometry" />
        </mxCell>
        <mxCell id="0OLPUZD3VUrtrHqeOKkV-22" style="edgeStyle=orthogonalEdgeStyle;rounded=0;orthogonalLoop=1;jettySize=auto;html=1;entryX=0.572;entryY=0.011;entryDx=0;entryDy=0;entryPerimeter=0;" edge="1" parent="1" source="FIvhjPSSkFFBlxrObluq-8" target="0OLPUZD3VUrtrHqeOKkV-21">
          <mxGeometry relative="1" as="geometry">
            <Array as="points">
              <mxPoint x="435" y="620" />
              <mxPoint x="-41" y="620" />
            </Array>
          </mxGeometry>
        </mxCell>
      </root>
    </mxGraphModel>
  </diagram>
</mxfile>
